<mxfile host="Electron" modified="2023-12-12T13:06:23.737Z" agent="Mozilla/5.0 (Windows NT 10.0; Win64; x64) AppleWebKit/537.36 (KHTML, like Gecko) draw.io/22.1.2 Chrome/114.0.5735.289 Electron/25.9.4 Safari/537.36" etag="mSyi4AbwSbX6Xd81TuST" version="22.1.2" type="device">
  <diagram name="Page-1" id="7cdpedsHqk66CDrl7d8L">
    <mxGraphModel dx="1050" dy="621" grid="1" gridSize="10" guides="1" tooltips="1" connect="1" arrows="1" fold="1" page="1" pageScale="1" pageWidth="850" pageHeight="1100" math="0" shadow="0">
      <root>
        <mxCell id="0" />
        <mxCell id="1" parent="0" />
        <mxCell id="ciCeHlRDEuP2ueTBmtQf-3" value="" style="rounded=1;whiteSpace=wrap;html=1;arcSize=3;" parent="1" vertex="1">
          <mxGeometry x="120" y="140" width="240" height="360" as="geometry" />
        </mxCell>
        <mxCell id="ciCeHlRDEuP2ueTBmtQf-1" value="Utilisateur" style="shape=umlActor;verticalLabelPosition=bottom;verticalAlign=top;html=1;outlineConnect=0;" parent="1" vertex="1">
          <mxGeometry x="40" y="290" width="30" height="60" as="geometry" />
        </mxCell>
        <mxCell id="ciCeHlRDEuP2ueTBmtQf-4" value="&lt;font style=&quot;font-size: 10px;&quot;&gt;Lance le programme avec&lt;br&gt;un fichier de sauvegarde&lt;/font&gt;" style="ellipse;whiteSpace=wrap;html=1;" parent="1" vertex="1">
          <mxGeometry x="160" y="400" width="160" height="70" as="geometry" />
        </mxCell>
        <mxCell id="ciCeHlRDEuP2ueTBmtQf-5" value="&lt;font style=&quot;font-size: 10px;&quot;&gt;Lance le programme avec&lt;br&gt;un fichier de configuration&lt;br&gt;&lt;/font&gt;" style="ellipse;whiteSpace=wrap;html=1;" parent="1" vertex="1">
          <mxGeometry x="160" y="285" width="160" height="70" as="geometry" />
        </mxCell>
        <mxCell id="ciCeHlRDEuP2ueTBmtQf-9" value="" style="edgeStyle=none;orthogonalLoop=1;jettySize=auto;html=1;rounded=0;entryX=0;entryY=0.5;entryDx=0;entryDy=0;" parent="1" target="ciCeHlRDEuP2ueTBmtQf-5" edge="1">
          <mxGeometry width="100" relative="1" as="geometry">
            <mxPoint x="80" y="320" as="sourcePoint" />
            <mxPoint x="130" y="320" as="targetPoint" />
            <Array as="points" />
          </mxGeometry>
        </mxCell>
        <mxCell id="ciCeHlRDEuP2ueTBmtQf-10" value="" style="edgeStyle=none;orthogonalLoop=1;jettySize=auto;html=1;rounded=0;entryX=0;entryY=0.5;entryDx=0;entryDy=0;" parent="1" target="ciCeHlRDEuP2ueTBmtQf-4" edge="1">
          <mxGeometry width="100" relative="1" as="geometry">
            <mxPoint x="80" y="320" as="sourcePoint" />
            <mxPoint x="140" y="260" as="targetPoint" />
            <Array as="points" />
          </mxGeometry>
        </mxCell>
        <mxCell id="ciCeHlRDEuP2ueTBmtQf-11" value="&lt;font style=&quot;font-size: 10px;&quot;&gt;Lance le programme&lt;br&gt;avec des arguments&lt;br&gt;&lt;/font&gt;" style="ellipse;whiteSpace=wrap;html=1;" parent="1" vertex="1">
          <mxGeometry x="160" y="170" width="160" height="70" as="geometry" />
        </mxCell>
        <mxCell id="ciCeHlRDEuP2ueTBmtQf-12" value="" style="edgeStyle=none;orthogonalLoop=1;jettySize=auto;html=1;rounded=0;entryX=0;entryY=0.5;entryDx=0;entryDy=0;" parent="1" target="ciCeHlRDEuP2ueTBmtQf-11" edge="1">
          <mxGeometry width="100" relative="1" as="geometry">
            <mxPoint x="80" y="320" as="sourcePoint" />
            <mxPoint x="160" y="319" as="targetPoint" />
            <Array as="points" />
          </mxGeometry>
        </mxCell>
      </root>
    </mxGraphModel>
  </diagram>
</mxfile>
